<svg width="768" height="346" viewBox="0 0 768 346" fill="none" xmlns="http://www.w3.org/2000/svg">
<g filter="url(#filter0_d)">
<path d="M-8 312L-4.20888 310.523C37.9687 294.086 75.5363 267.675 105.28 233.551V233.551C118.058 218.89 129.276 202.939 138.752 185.955L177.5 116.5L204.896 65.8516C236.893 6.69546 321.983 7.29309 353.147 66.8928L360.162 80.3103C386.454 130.594 422.551 175.102 466.323 211.21V211.21C507.408 245.101 554.498 270.967 605.14 287.459L624.74 293.841C661.786 305.906 700.116 313.599 738.948 316.764L840 325" stroke="white" stroke-width="14"/>
<path d="M-8 312L-4.20888 310.523C37.9687 294.086 75.5363 267.675 105.28 233.551V233.551C118.058 218.89 129.276 202.939 138.752 185.955L177.5 116.5L204.896 65.8516C236.893 6.69546 321.983 7.29309 353.147 66.8928L360.162 80.3103C386.454 130.594 422.551 175.102 466.323 211.21V211.21C507.408 245.101 554.498 270.967 605.14 287.459L624.74 293.841C661.786 305.906 700.116 313.599 738.948 316.764L840 325" stroke="url(#paint0_radial)" stroke-width="14"/>
</g>
<defs>
<filter id="filter0_d" x="-24.5417" y="0.836609" width="879.11" height="345.14" filterUnits="userSpaceOnUse" color-interpolation-filters="sRGB">
<feFlood flood-opacity="0" result="BackgroundImageFix"/>
<feColorMatrix in="SourceAlpha" type="matrix" values="0 0 0 0 0 0 0 0 0 0 0 0 0 0 0 0 0 0 127 0"/>
<feOffset/>
<feGaussianBlur stdDeviation="7"/>
<feColorMatrix type="matrix" values="0 0 0 0 1 0 0 0 0 1 0 0 0 0 1 0 0 0 0.25 0"/>
<feBlend mode="normal" in2="BackgroundImageFix" result="effect1_dropShadow"/>
<feBlend mode="normal" in="SourceGraphic" in2="effect1_dropShadow" result="shape"/>
</filter>
<radialGradient id="paint0_radial" cx="0" cy="0" r="1" gradientUnits="userSpaceOnUse" gradientTransform="translate(278 98) rotate(90.8021) scale(250.024 532.715)">
<stop stop-color="#00C2FF"/>
<stop offset="0.223958" stop-color="#A5FAFF"/>
<stop offset="0.446609" stop-color="#00FFB2"/>
<stop offset="1" stop-color="white" stop-opacity="0"/>
</radialGradient>
</defs>
</svg>
